<svg xmlns="http://www.w3.org/2000/svg" width="256" height="256"><path fill="#1976D2" fill-opacity=".016" fill-rule="evenodd" d="M0 128.004v128.004l128.25-.254 128.25-.254.254-127.75L257.008 0H0v128.004m.485.496c0 70.4.119 99.053.265 63.672.146-35.38.146-92.98 0-128C.604 29.153.485 58.1.485 128.5"/><path fill="#1976D2" fill-opacity=".275" fill-rule="evenodd" d="M20.758 101.252c-1.508 2.887-2.705 5.658-2.66 6.158.045.501-.634 1.311-1.508 1.8-.875.489-1.59 1.349-1.59 1.911s.707.315 1.571-.55c1.965-1.964 2.344-1.958 4.59.075 1 .905 4.053 1.86 6.783 2.123l4.965.477-2.535 5.002-2.534 5.002-4.437-.608c-5.862-.804-10.739-3.348-9.984-5.21 1.757-4.332 1.488-4.458-.923-.432-4.027 6.724-10.681 20.149-10.216 20.614.224.223 1.209-1.372 2.189-3.545 1.767-3.92 1.802-3.938 4.301-2.3 1.386.908 4.904 2.127 7.818 2.709l5.299 1.058-2.943 4.729C17.325 142.866 16 145.22 16 145.497c0 .277 4.222.503 9.383.503h9.382l2.691-5.5 2.691-5.5h7.927c4.359 0 7.926.247 7.926.55 0 .302-.708 1.919-1.574 3.593-.865 1.673-1.403 3.214-1.194 3.423.463.462 11.78-20.921 11.738-22.176-.017-.49-.489-.103-1.05.86-.836 1.434-2.453 1.75-8.97 1.75-4.372 0-7.95-.168-7.95-.374s1.163-2.456 2.585-5L52.171 113h7.214c3.968 0 7.681.466 8.25 1.035.713.713 1.556-.143 2.713-2.75.923-2.082 2.32-4.885 3.104-6.229.784-1.344 1.202-2.807.928-3.25-.274-.443-10.169-.806-21.989-.806-17.307 0-22.065-.297-24.441-1.526-1.622-.839-2.95-1.964-2.95-2.5 0-2.308-1.692-.601-4.242 4.278m16.721 5.789-2.554 5.041 8.259-.291 8.259-.291 2.262-4c1.244-2.2 2.27-4.338 2.279-4.75.009-.412-3.576-.75-7.967-.75h-7.983l-2.555 5.041m38.29-.291C70.176 117.17 56 144.916 56 145.441c0 .308 1.791.559 3.98.559 3.636 0 4.155-.345 6.02-4 2.006-3.932 2.134-4 7.52-4H79v8h8v-44h-4.341c-4.154 0-4.451.204-6.89 4.75m58.271-3.298c-1.737 2.093-.322 5.439 2.611 6.175 3.416.858 5.826-1.592 4.96-5.042-.509-2.026-1.268-2.585-3.508-2.585-1.572 0-3.4.653-4.063 1.452m91.21-.811c-1.725.726-1.571 4.847.237 6.348.869.721 2.557.966 4.061.588 2.192-.55 2.528-1.123 2.263-3.861-.253-2.617-.777-3.252-2.811-3.409-1.375-.106-3.062.044-3.75.334M211 110.468c0 3.162-.468 4.774-1.5 5.17-.978.376-1.5 1.931-1.5 4.469 0 2.794.424 3.893 1.5 3.893 1.242 0 1.5 1.889 1.5 11v11h7v-11c0-10.333.121-11 2-11 1.667 0 2-.667 2-4 0-3.296-.342-4-1.945-4-1.611 0-1.998-.816-2.25-4.75-.292-4.555-.439-4.763-3.555-5.063-3.241-.313-3.25-.3-3.25 4.281m-111.365 5.605c-1.449 1.139-2.635 1.589-2.635 1 0-.59-1.575-1.073-3.5-1.073H90v44h7v-8c0-7.276.853-9.665 2.5-7 .34.55 2.105 1 3.923 1 10.369 0 14.177-20.966 5.312-29.247-3.525-3.293-5.583-3.447-9.1-.68m55 0c-1.449 1.139-2.635 1.589-2.635 1 0-.59-1.575-1.073-3.5-1.073H145v30h7v-9.918c0-11.232.437-13.082 3.088-13.082 2.357 0 2.845 2.086 3.162 13.5l.25 9h7l.284-10.156c.208-7.432.677-10.482 1.75-11.372 1.153-.957 1.786-.951 2.966.028 1.157.96 1.5 3.618 1.5 11.622V146h7l-.015-12.75c-.016-14.056-.883-17.138-5.252-18.675-2.317-.815-3.146-.554-5.544 1.744l-2.821 2.702-2.358-2.51c-2.868-3.053-4.915-3.16-8.375-.438m31.913 1.446c-4.211 4.211-4.904 6.55-4.379 14.79.315 4.954.988 7.031 3.233 9.974 2.367 3.103 3.444 3.717 6.517 3.717 2.024 0 4.221-.54 4.881-1.2.933-.933 1.2-.92 1.2.06 0 .845 1.236 1.158 3.75.95l3.75-.31.277-14.801.277-14.8-5.047.23c-2.851.13-5.561-.283-6.227-.949-2.032-2.032-4.588-1.306-8.232 2.339m53.853-1.622c-11.542 7.038-5.885 33.448 6.463 30.169 2.282-.606 2.676-1.297 2.931-5.145.293-4.416.274-4.446-2.973-4.433-4.388.016-6.505-3.888-4.842-8.928 1.227-3.718 2.74-4.708 5.924-3.875 1.875.491 2.096.119 2.096-3.533 0-3.012-.507-4.353-1.934-5.117-2.721-1.456-4.122-1.298-7.665.862m-114.151.637c-1.251.878-2.25 1.11-2.25.523 0-.581-1.812-1.057-4.027-1.057h-4.026l.276 14.75.277 14.75h7l.5-9.79c.537-10.513 1.422-12.219 5.806-11.187 2.192.516 2.291.306 2-4.231-.342-5.337-1.852-6.358-5.556-3.758m-50.025 5.216a1128.373 1128.373 0 0 1-3.028 6.5c-.2.412.985.75 2.634.75 2.989 0 2.999-.02 3.334-6.502.184-3.576.198-6.501.03-6.5-.168.001-1.504 2.59-2.97 5.752m57.998 9 .277 14.75h7l.277-14.75.276-14.75h-8.106l.276 14.75m90 0 .277 14.75h7l.277-14.75.276-14.75h-8.106l.276 14.75m-198.024-2.223c-1.209 2.489-2.199 4.739-2.199 5 0 .26 3.604.473 8.008.473h8.008l1.601-4c.88-2.2 2.001-4 2.492-4 .49 0 .891-.45.891-1 0-.586-3.434-1-8.301-1h-8.3l-2.2 4.527m72.456-2.698C95.484 129.332 97.614 137 101.757 137c2.071 0 4.243-3.142 4.243-6.137 0-6.249-3.855-8.891-7.345-5.034m92.406-.403c-.651.784-1.043 3.326-.872 5.648.359 4.878 2.697 7.114 5.561 5.319 2.113-1.324 2.931-8.868 1.189-10.967-1.518-1.828-4.36-1.828-5.878 0M0 139.784c0 .882 5.347 4.238 6.654 4.176.465-.022-.391-.711-1.904-1.532-1.513-.821-2.75-1.928-2.75-2.46S1.55 139 1 139s-1 .353-1 .784m253.015 2.966c.037 1.778 1.747 3.444 2.419 2.357.376-.609.406-1.557.066-2.107-.721-1.166-2.507-1.346-2.485-.25M8.8 145.2c.933.933 1.467.933 2.4 0 .933-.933.667-1.2-1.2-1.2s-2.133.267-1.2 1.2"/><path fill="#1976D2" fill-opacity=".692" fill-rule="evenodd" d="M20.658 101.624c-1.484 3.026-2.409 5.97-2.056 6.541 1.055 1.707 7.085 3.835 10.866 3.835 4.085 0 4.255.663 1.532 6-1.1 2.156-2 4.388-2 4.96 0 .633 3.129 1.04 8 1.04 4.4 0 8 .298 8 .662 0 .364-1.144 2.614-2.542 5L39.916 134h-8.458c-4.652 0-8.458-.249-8.458-.553 0-.304 1.125-2.209 2.5-4.232 1.375-2.024 2.5-3.967 2.5-4.318 0-.352-2.242-.937-4.981-1.3-3.054-.405-6.044-1.575-7.726-3.022l-2.745-2.36-2.651 4.642c-1.459 2.554-2.786 5.093-2.95 5.643-.595 1.995 6.224 5.5 10.701 5.5 2.394 0 4.338.338 4.321.75-.017.412-1.079 2.887-2.359 5.5L17.282 145h17.74l2.725-5.556 2.725-5.556 8.44.203 8.441.203 2.809-4.897 2.81-4.897-8.562-.5-8.561-.5 2.884-5.5 2.883-5.5 8.832-.074 8.831-.073 2.316-4.427c1.273-2.434 2.335-4.764 2.36-5.176.025-.412-3.892-.739-8.705-.726l-8.75.023-2.152 4.9-2.152 4.9-8.6.327c-4.73.179-8.6-.029-8.598-.464.001-.434.902-2.554 2.002-4.71 1.1-2.156 2-4.121 2-4.366 0-.246-2.269-.758-5.042-1.14-3.024-.416-6.154-1.629-7.821-3.032l-2.78-2.34-2.699 5.502m54.023 8.626C68.962 120.778 57 143.994 57 144.565c0 .239 1.462.434 3.25.432 2.731-.002 3.569-.6 5.25-3.75 1.916-3.589 2.242-3.76 7.75-4.047l5.75-.3v8.1h8v-43h-3.919c-3.88 0-3.964.082-8.4 8.25m60.519-7.05c-1.854 1.854-1.423 4.61.917 5.862 2.936 1.572 5.396-.88 4.494-4.477-.695-2.77-3.348-3.448-5.411-1.385m90.509-.576c-1.197 1.197-.787 5.067.664 6.271 2.381 1.976 4.77.211 4.431-3.273-.22-2.255-.871-3.203-2.345-3.414-1.123-.161-2.36.027-2.75.416M211 111.5c0 2.475-.45 4.5-1 4.5s-1 1.8-1 4 .45 4 1 4c.603 0 1 4.167 1 10.5V145h7v-10.5c0-8.315.29-10.5 1.395-10.5.897 0 1.531-1.427 1.776-4 .316-3.309.075-4-1.395-4-1.438 0-1.776-.855-1.776-4.5 0-4.476-.019-4.5-3.5-4.5s-3.5.024-3.5 4.5M75.564 121.873c-1.96 3.892-3.564 7.313-3.564 7.602 0 .289 1.51.525 3.356.525h3.357l.664-7.146c.365-3.93.459-7.352.208-7.603-.251-.251-2.061 2.729-4.021 6.622m23.658-4.651c-1.909 1.909-2.222 1.98-2.222.5 0-1.247-.828-1.722-3-1.722h-3v44h6v-8.622c0-7.366.209-8.45 1.431-7.436 1.905 1.582 6.607 1.643 9.446.124 3.144-1.683 5.123-6.923 5.123-13.566 0-12.134-7.599-19.457-13.778-13.278M154 117c-1.556 1.556-2 1.667-2 .5 0-1.048-1.056-1.5-3.5-1.5H145v29h7v-10.3c0-12.015 1.489-15.068 5.429-11.129 1.217 1.218 1.571 3.808 1.571 11.5V145h6v-9.845c0-8.717.24-10.062 2.09-11.737 2.052-1.856 2.117-1.855 3.5.036.986 1.349 1.41 4.876 1.41 11.737V145h7v-11.435c0-11.21-.943-16.273-3.313-17.779-2.398-1.525-5.849-.716-8.375 1.964-1.728 1.832-2.743 2.327-3.042 1.482-1.547-4.369-6.957-5.545-10.27-2.232m34.407-1.027c-6.664 2.695-7.385 22.656-1.009 27.944 2.336 1.936 7.611 1.791 9.104-.25 1.513-2.07 2.498-2.135 2.498-.167 0 1 1 1.5 3 1.5h3v-29h-2.917c-1.604 0-3.095.535-3.312 1.188-.281.842-1.097.697-2.806-.5-2.634-1.845-4.36-2.008-7.558-.715m52.648.294c-4.086 2.067-6.549 7.448-6.516 14.233.016 3.3.689 7.35 1.496 9 1.855 3.792 7.129 6.551 10.699 5.596 2.187-.585 2.63-1.277 2.63-4.111 0-3.09-.273-3.412-2.919-3.447-2.377-.031-3.248-.737-4.698-3.806-1.621-3.433-1.644-4.031-.253-6.72 1.905-3.684 4.749-5.369 6.353-3.765.634.634 1.186.951 1.225.703.626-3.89.183-8.023-.904-8.44-2.139-.82-4.493-.569-7.113.757M117 130.5V145h6v-8.845c0-7.526.293-9.111 1.967-10.625 1.147-1.038 2.815-1.559 4-1.249 1.817.475 2.033.063 2.033-3.875 0-3.733-.304-4.406-1.992-4.406-1.095 0-2.553.9-3.24 2-.687 1.1-1.591 2-2.009 2-.417 0-.759-.9-.759-2 0-1.556-.667-2-3-2h-3v14.5m18 0V145h6v-29h-6v14.5m90 0V145h6v-29h-6v14.5m-126.978-5.027c-1.934 2.331-1.498 8.495.76 10.754 2.888 2.887 5.903 1.556 7.341-3.242.985-3.289.907-4.29-.501-6.44-1.872-2.856-5.674-3.392-7.6-1.072m92.178-.273c-.66.66-1.2 3.065-1.2 5.345 0 6.442 4.724 9.627 8.345 5.626 1.934-2.136 2.226-9.2.455-10.971-1.547-1.547-6.053-1.547-7.6 0"/><path fill="#1976D2" fill-opacity=".625" fill-rule="evenodd" d="m20.706 102.527-2.604 5.31 2.699 1.769c1.484.973 5.061 1.966 7.949 2.206 2.888.239 5.25.862 5.25 1.384 0 .521-1.148 2.907-2.551 5.301l-2.551 4.353 8.468.325 8.469.325 2.571-5.25 2.572-5.25h-7.93c-4.361 0-8.21-.453-8.552-1.007-.342-.554.233-2.241 1.278-3.75 3.67-5.297 3.513-5.947-1.601-6.629-2.57-.343-6.066-1.472-7.768-2.51l-3.095-1.886-2.604 5.309M54.597 107l-2.722 5h8.448c9.166 0 9.346-.105 12.442-7.25l1.192-2.75H57.318l-2.721 5M9.625 123.692C8.181 126.636 7 129.266 7 129.537c0 1.529 7.056 4.456 10.75 4.459 4.828.005 5.032.55 2.25 6.004-1.1 2.156-2 4.163-2 4.46 0 .297 3.825.54 8.5.54 6.667 0 8.5-.306 8.5-1.417 0-.779.337-1.566.75-1.75.413-.183 1.53-2.02 2.484-4.083l1.734-3.75h-8.484c-4.666 0-8.484-.243-8.484-.54 0-.297.9-2.304 2-4.46s2-4.105 2-4.331c0-.226-2.291-.715-5.092-1.087-3.311-.439-5.891-1.474-7.375-2.958l-2.283-2.283-2.625 5.351m35.71 1.558c-.501.688-1.674 2.938-2.607 5L41.032 134h8.247c7.047 0 8.39-.273 9.234-1.875a223.764 223.764 0 0 1 2.763-5L63.051 124h-8.403c-5.57 0-8.71.421-9.313 1.25"/></svg>