<svg xmlns="http://www.w3.org/2000/svg" width="256" height="256"><path fill="#1976D2" fill-opacity=".016" fill-rule="evenodd" d="M0 128.004v128.004l128.25-.254 128.25-.254.254-127.75L257.008 0H0v128.004m.485.496c0 70.4.119 99.053.265 63.672.146-35.38.146-92.98 0-128C.604 29.153.485 58.1.485 128.5"/><path fill="#1976D2" fill-opacity=".175" fill-rule="evenodd" d="M0 128.011v65.997l128.25-.254 128.25-.254.257-66 .257-66-128.507.258L0 62.015v65.996M.472 128c0 36.575.125 51.537.278 33.25.152-18.288.152-48.213 0-66.5C.597 76.462.472 91.425.472 128m90.816-19.824 3.66 4.466-3.348 9.429c-1.842 5.186-3.688 10.528-4.103 11.871-.421 1.363 4.002-2.972 10.012-9.813 5.963-6.788 10.37-12.617 9.878-13.068-.488-.447-4.487-2.031-8.887-3.52-4.4-1.488-8.646-2.96-9.436-3.269-.79-.31.211 1.447 2.224 3.904m-22.163 8.571c-5.569 6.461-10.124 11.974-10.122 12.25.001.277 3.714 1.806 8.25 3.398 4.536 1.593 8.919 3.145 9.739 3.45.821.305.034-1.287-1.75-3.539-1.783-2.252-3.232-4.479-3.22-4.95.012-.471 1.751-5.694 3.864-11.606C78 109.838 79.621 105 79.49 105c-.132 0-4.796 5.286-10.365 11.747m45.092 5.503.283 11.25h11c10.646 0 11.01-.072 11.32-2.25.311-2.191.083-2.25-8.75-2.25H119v-9c0-8.964-.01-9-2.533-9h-2.533l.283 11.25M141 122c0 10.333.121 11 2 11s2-.667 2-11-.121-11-2-11-2 .667-2 11m8.217.238c.242 9.626.526 11.285 1.976 11.562 1.369.263 1.751-.596 2-4.488l.307-4.812 6.75-.296c5.93-.259 6.75-.533 6.75-2.25 0-1.754-.722-1.954-7.07-1.954-6.759 0-7.055-.099-6.75-2.25.302-2.124.84-2.266 9.57-2.538 8.427-.261 9.25-.462 9.25-2.25 0-1.836-.74-1.962-11.533-1.962h-11.533l.283 11.238m26.781.012-.002 11.25 11.002-.312c10.11-.287 11.002-.47 11.002-2.25 0-1.774-.763-1.938-9-1.938-8.933 0-9-.019-9-2.5 0-2.429.2-2.5 7-2.5 6.333 0 7-.19 7-2s-.667-2-7-2c-6.8 0-7-.071-7-2.5 0-2.481.067-2.5 9-2.5 8.333 0 9-.148 9-2 0-1.879-.667-2-11-2h-11l-.002 11.25m-95.427-4.679c-2.096 2.097-1.704 4.27 1.106 6.133 1.963 1.301 2.387 1.232 4.323-.704 1.936-1.936 2.005-2.36.704-4.323-1.863-2.81-4.036-3.202-6.133-1.106M70 148c0 2.2.45 4 1 4s1-.9 1-2c0-2.727 2.844-2.548 3.969.25.732 1.823.894 1.395.852-2.25-.029-2.475-.259-3.713-.51-2.75-.558 2.132-4.311 2.35-4.311.25 0-.825-.45-1.5-1-1.5s-1 1.8-1 4m10.667-3.333c-1.378 1.377-.636 6.278 1.083 7.163 3.599 1.851 7.213-2.162 5.25-5.83-1.025-1.916-4.929-2.738-6.333-1.333M90 148c0 4.753 1.49 5.302 2.375.875.887-4.434.808-4.875-.875-4.875-1.083 0-1.5 1.111-1.5 4m5.334-.919c-.436 2.179-.863 2.691-1.46 1.75-.603-.952-.848-.691-.859.919-.021 3.151 1.799 2.811 2.672-.5l.725-2.75.676 3c.615 2.733.686 2.621.794-1.25.136-4.909-1.637-5.723-2.548-1.169M101 148c0 3.982.017 3.999 3.75 3.85 3.016-.12 3.212-.231 1-.566-3.157-.479-3.75-2.284-.75-2.284 1.1 0 2-.45 2-1s-.9-1-2-1c-2.728 0-2.537-1.757.25-2.294 1.627-.314 1.35-.471-1-.57-3.148-.132-3.25-.01-3.25 3.864m9.272 0c0 2.475.195 3.488.434 2.25.238-1.238.238-3.262 0-4.5-.239-1.238-.434-.225-.434 2.25m3.888.25c.143 3.788.204 3.889.568.934.357-2.901.608-3.151 2.001-2 1.436 1.187 1.455 1.095.191-.934-2.09-3.357-2.939-2.742-2.76 2m5.976-1.441c-.097 2.359-.495 3.093-1.386 2.558-.721-.433-.615.035.25 1.106 1.446 1.79 1.511 1.779 1.82-.308.175-1.191.124-3.177-.114-4.415-.308-1.596-.473-1.289-.57 1.059m4.533-2.035c.642.409 1.358 2.315 1.59 4.235l.421 3.491.16-3.667c.088-2.016.723-3.893 1.41-4.171.688-.277-.1-.533-1.75-.568-1.67-.035-2.482.266-1.831.68m8.6-.081c.973.254 2.323.237 3-.037.677-.274-.119-.481-1.769-.461-1.65.02-2.204.244-1.231.498m7.076.85c-.326.849-.311 1.824.031 2.167.343.343.624-.089.624-.96s.563-1.81 1.25-2.088c.979-.395.972-.521-.031-.583-.705-.043-1.548.615-1.874 1.464m3.655-1.15c0 .216.698.661 1.552.989.89.341 1.291.173.941-.393-.587-.951-2.493-1.406-2.493-.596m6 3.774c0 2.291.239 3.927.532 3.635.901-.902 1.154-7.802.286-7.802-.45 0-.818 1.875-.818 4.167m4.5-3.167c.34.55.816 1 1.059 1s.441-.45.441-1-.477-1-1.059-1-.781.45-.441 1m7.23-.357c-.286.471.108 1.437.875 2.146 1.546 1.429 1.842.464.505-1.646-.473-.746-1.094-.971-1.38-.5m6.939.131c.642.409 1.358 2.315 1.59 4.235l.421 3.491.16-3.667c.088-2.016.723-3.893 1.41-4.171.688-.277-.1-.533-1.75-.568-1.67-.035-2.482.266-1.831.68m7.603 3.226c0 2.475.195 3.488.434 2.25.238-1.238.238-3.262 0-4.5-.239-1.238-.434-.225-.434 2.25m9.478-3.002c1.894 2.124 1.503 4.711-.973 6.445-1.222.856-1.704 1.557-1.071 1.557 1.758 0 4.294-2.923 4.294-4.949 0-.993-.787-2.402-1.75-3.13-1.489-1.127-1.563-1.115-.5.077m4.41 3.252c.143 3.788.204 3.889.568.934.357-2.901.608-3.151 2.001-2 1.436 1.187 1.455 1.095.191-.934-2.09-3.357-2.939-2.742-2.76 2m5.976-1.441c-.097 2.359-.495 3.093-1.386 2.558-.721-.433-.615.035.25 1.106 1.446 1.79 1.511 1.779 1.82-.308.175-1.191.124-3.177-.114-4.415-.308-1.596-.473-1.289-.57 1.059m-114.746-.383c-.91 2.371.377 4.765 2.357 4.384 1.107-.213 1.753-1.249 1.753-2.81 0-2.851-3.156-4.059-4.11-1.574m98.61 2.015c0 1.343.369 2.669.819 2.947.451.279.624-.82.387-2.441-.525-3.574-1.206-3.86-1.206-.506m-25.316-.691c-.238.412-.072 1.65.371 2.75.702 1.746.813 1.651.875-.75.069-2.713-.399-3.464-1.246-2m5.031 1.232c-.35 1.337-.429 2.638-.175 2.891.253.253.46-.065.46-.706 0-1.55 3.271-1.493 4.859.083 1.01 1.002 1.127.903.593-.5-.366-.963-1.48-1.75-2.476-1.75-.995 0-1.993-.551-2.217-1.224-.225-.674-.694-.131-1.044 1.206m-14.837-.078c1.595 1.01.66 3.096-1.387 3.096-.766 0-1.85-.787-2.411-1.75-.561-.963-1.033-1.243-1.05-.622-.051 1.916 2.769 3.571 4.922 2.887 2.533-.804 2.78-4.521.298-4.5-1.384.012-1.462.198-.372.889"/><path fill="#1976D2" fill-opacity=".169" fill-rule="evenodd" d="M0 128.004v66.004l128.25-.254 128.25-.254.017-66.5.018-66.5-.518 50.762-.517 50.763-3.5-2.35c-4.121-2.766-9.563-4.779-10.469-3.872-.352.351-1.009.042-1.46-.688-.911-1.474-16.67-1.846-27.77-.655-3.758.403-6.975.25-8.169-.389-1.287-.689-2.086-.709-2.303-.059-.193.58-4.511.966-10.33.923-16.992-.125-21.698.157-25.922 1.554-2.242.741-5.865 1.573-8.05 1.849-2.186.276-4.137.991-4.336 1.588-.199.598-.773.832-1.276.521-.503-.311-.915-.201-.915.244s-1.012.893-2.25.995c-1.238.103-4.275.338-6.75.522-2.475.185-4.95.621-5.5.969-1.259.796-7.766.395-9.335-.575-.647-.4-2.968-.752-5.157-.782-2.287-.032-3.727-.465-3.385-1.019.328-.53-.241-.875-1.264-.767-3.821.404-5.242-.089-5.858-2.032-.349-1.098-1.786-2.286-3.193-2.64-2.163-.542-2.306-.784-.926-1.556.899-.503 2.015-.679 2.481-.39.467.288.616-.689.333-2.172l-.515-2.695-1.016 2.275c-.827 1.854-1.678 2.22-4.59 1.976-3.397-.285-3.59-.5-3.87-4.3-.162-2.2-1.109-5.8-2.106-8-2.098-4.632-3.529-9.562-3.194-11 .128-.55-1.823 1.006-4.336 3.458-2.513 2.452-4.569 4.228-4.569 3.947 0-.282 1.575-5.189 3.5-10.905 3.704-10.999 4.056-12.408 2.5-10-.732 1.132-.973.673-.985-1.872-.014-3.069.143-3.249 1.735-2 .963.754.063-.729-2-3.296-4.312-5.369-4.576-6.229-1.625-5.292 1.241.394 1.883.282 1.543-.269-.788-1.273 6.276-18.654 8.238-20.271.334-.275 2.179-2.679 4.1-5.342 1.922-2.662 4.281-5.575 5.244-6.472.962-.897 1.75-2.068 1.75-2.604 0-.535 1.209-2.235 2.687-3.777L115.374 62H0v66.004M.472 128c0 36.575.125 51.537.278 33.25.152-18.288.152-48.213 0-66.5C.597 76.462.472 91.425.472 128m68.203-11.368c-5.954 6.903-10.679 12.662-10.5 12.797 1.145.864 20.316 7.413 20.669 7.06.24-.24-1.196-2.243-3.191-4.452l-3.628-4.015 4.001-11.219c2.201-6.17 3.883-11.556 3.738-11.97-.145-.413-5.135 4.896-11.089 11.799m11.525.568c-2.805 2.805-.692 7.8 3.3 7.8 1.155 0 2.64-.54 3.3-1.2.66-.66 1.2-2.145 1.2-3.3 0-1.155-.54-2.64-1.2-3.3-.66-.66-2.145-1.2-3.3-1.2-1.155 0-2.64.54-3.3 1.2m.273 27.83c-3.748 4.141 1.811 10.469 6.082 6.924 2.129-1.767 1.826-6.68-.489-7.919-2.717-1.454-3.503-1.314-5.593.995M90 148c0 2.75.45 5 1 5s1.007-.562 1.015-1.25c.01-.813.273-.885.75-.208.404.574 1.972 1.131 3.485 1.239 2.664.19 2.75.038 2.75-4.866 0-4.233-.279-5.008-1.706-4.733-.939.181-1.979 1.451-2.312 2.823l-.606 2.495-.707-2.75c-.389-1.512-1.374-2.75-2.188-2.75-1.111 0-1.481 1.251-1.481 5m-20 .5c0 2.475.45 4.5 1 4.5s1-.9 1-2c0-1.111.667-2 1.5-2s1.5.889 1.5 2c0 1.1.45 2 1 2s1-2.025 1-4.5-.45-4.5-1-4.5-1 .675-1 1.5-.675 1.5-1.5 1.5-1.5-.675-1.5-1.5-.45-1.5-1-1.5-1 2.025-1 4.5m12.69-2.857c-.379.38-.69 1.74-.69 3.024 0 2.698 2.465 3.169 3.43.655.687-1.79-1.582-4.837-2.74-3.679m21.06 1.019c.688.278 1.813.278 2.5 0 .688-.277.125-.504-1.25-.504s-1.937.227-1.25.504m0 3c.688.278 1.813.278 2.5 0 .688-.277.125-.504-1.25-.504s-1.937.227-1.25.504m76.476 2.917c.95.991 1.942 1.587 2.205 1.324.263-.263-.514-1.074-1.726-1.803-2.107-1.265-2.128-1.243-.479.479"/><path fill="#1976D2" fill-opacity=".372" fill-rule="evenodd" d="M0 128v66h33c30.149 0 35.404-.396 32.123-2.424-.482-.298-1.416-2.687-2.075-5.309-.659-2.622-2.302-6.967-3.652-9.655-1.349-2.689-2.231-5.111-1.959-5.382.271-.271.073-1.277-.44-2.236-.575-1.074-.578-3.922-.009-7.419.554-3.406.561-6.63.018-8.059-.505-1.329-.522-2.523-.039-2.699.477-.175 1.017-4.63 1.2-9.902.311-8.953.465-9.561 2.333-9.222 1.665.302 1.623.196-.25-.633-2.372-1.05-2.907-2.536-1.275-3.545.537-.331.823-1.916.636-3.521-.187-1.605-.008-3.047.398-3.206.406-.158 1.048-3.663 1.427-7.788s.878-9.525 1.109-12c1.324-14.189 5.085-28 7.626-28 .456 0 .829-.649.829-1.443s.868-2.052 1.929-2.795c1.062-.743 2.235-2.569 2.609-4.057L76.217 62H0v66m61.924-5.25L59.5 125.5l2.75-2.424c2.57-2.266 3.209-3.076 2.424-3.076-.179 0-1.416 1.237-2.75 2.75"/></svg>