<svg xmlns="http://www.w3.org/2000/svg" width="225" height="225" viewBox="0 0 225 225" version="1.1"><path d="M 17.489 90.022 L 14.963 95.007 18.231 97 C 21.222 98.823, 23.367 99.394, 26.750 99.269 C 28.490 99.204, 28.320 100.453, 25.960 105.078 C 24.002 108.915, 23.772 109.049, 20.210 108.404 C 16.449 107.723, 11 105.375, 11 104.434 C 11 104.152, 11.909 102.138, 13.020 99.960 C 14.132 97.782, 14.846 96, 14.608 96 C 14.369 96, 10.932 102.163, 6.970 109.696 L -0.235 123.391 1.993 125.196 C 3.219 126.188, 4.734 126.982, 5.361 126.960 C 5.987 126.938, 5.262 126.249, 3.750 125.428 C 2.237 124.607, 1 123.738, 1 123.495 C 1 123.252, 1.976 121.044, 3.170 118.588 L 5.339 114.122 7.658 115.946 C 8.933 116.949, 11.963 118.067, 14.392 118.431 L 18.807 119.094 16.318 123.547 L 13.829 128 22.165 127.964 L 30.500 127.928 32.500 123.714 L 34.500 119.500 42.089 119.500 L 49.678 119.500 53.386 112.500 C 55.425 108.650, 56.461 106.287, 55.687 107.250 C 54.601 108.600, 52.761 109, 47.640 109 C 40.265 109, 39.757 108.397, 43 103.500 C 44.093 101.850, 44.990 100.162, 44.993 99.750 C 44.997 99.338, 41.631 99, 37.513 99 L 30.026 99 32.212 94.500 L 34.399 90 41.699 90 C 45.715 90, 49 90.211, 49 90.470 C 49 90.728, 48.091 92.557, 46.981 94.534 C 45.870 96.511, 45.181 98.485, 45.450 98.919 C 45.718 99.353, 48.649 99.587, 51.962 99.438 C 55.282 99.288, 58.268 99.624, 58.615 100.186 C 59.197 101.129, 65 91.727, 65 89.840 C 65 89.378, 56.338 88.998, 45.750 88.996 C 28.338 88.993, 26.190 88.804, 23.257 87.015 L 20.014 85.038 17.489 90.022 M 22.212 113.500 L 20.026 118 27.412 118 L 34.798 118 36.899 113.969 C 38.055 111.752, 39 109.727, 39 109.469 C 39 109.211, 35.715 109, 31.699 109 L 24.399 109 22.212 113.500 M 7.750 127.662 C 8.438 127.940, 9.563 127.940, 10.250 127.662 C 10.938 127.385, 10.375 127.158, 9 127.158 C 7.625 127.158, 7.063 127.385, 7.750 127.662" stroke="none" fill="#151414" fill-rule="evenodd"/><path d="M 19.399 85.250 C 19.003 85.938, 19.048 86.166, 19.498 85.759 C 19.948 85.351, 21.032 85.576, 21.908 86.259 C 23.317 87.357, 23.342 87.298, 22.128 85.750 C 20.492 83.664, 20.328 83.634, 19.399 85.250 M 67.632 91.250 C 66.854 92.487, 62.169 101.263, 57.221 110.750 L 48.225 128 52.056 128 C 55.252 128, 56.181 127.503, 57.659 125 C 59.235 122.332, 59.960 122, 64.216 122 C 68.865 122, 69 122.085, 69 125 C 69 127.762, 69.278 128, 72.500 128 L 76 128 76 108.500 L 76 89 72.523 89 C 70.003 89, 68.657 89.619, 67.632 91.250 M 118.046 90.445 C 115.978 92.936, 117.162 96.461, 120.183 96.810 C 123.804 97.228, 125.527 94.197, 123.396 91.155 C 121.643 88.652, 119.743 88.400, 118.046 90.445 M 197.521 90.621 C 195.572 92.570, 195.865 94.886, 198.250 96.388 C 201.987 98.741, 205.981 92.922, 202.418 90.316 C 200.097 88.620, 199.485 88.658, 197.521 90.621 M 184 97.441 C 184 99.334, 183.550 101.160, 183 101.500 C 182.450 101.840, 182 103.640, 182 105.500 C 182 107.360, 182.450 109.160, 183 109.500 C 183.550 109.840, 184 114.141, 184 119.059 L 184 128 187.500 128 L 191 128 191 119 C 191 110.667, 191.148 110, 193 110 C 194.704 110, 195 109.333, 195 105.500 C 195 101.667, 194.704 101, 193 101 C 191.381 101, 191 100.333, 191 97.500 C 191 94.167, 190.833 94, 187.500 94 C 184.178 94, 184 94.175, 184 97.441 M 55.813 99.683 C 56.534 99.972, 57.397 99.936, 57.729 99.604 C 58.061 99.272, 57.471 99.036, 56.417 99.079 C 55.252 99.127, 55.015 99.364, 55.813 99.683 M 78.667 101.667 C 78.300 102.033, 78 111.033, 78 121.667 L 78 141 81.500 141 L 85 141 85 133.345 C 85 125.992, 85.072 125.755, 86.829 127.345 C 93.055 132.979, 101.254 122.848, 99.568 111.604 C 98.645 105.449, 94.887 101, 90.611 101 C 88.845 101, 86.860 101.540, 86.200 102.200 C 85.267 103.133, 85 103.133, 85 102.200 C 85 100.945, 79.824 100.509, 78.667 101.667 M 101.667 101.667 C 101.300 102.033, 101 108.108, 101 115.167 L 101 128 104.500 128 L 108 128 108 121.565 C 108 113.111, 109.204 110, 112.475 110 C 114.801 110, 115 109.645, 115 105.500 C 115 100.581, 113.959 99.939, 110.223 102.557 C 108.211 103.966, 108 103.966, 108 102.557 C 108 100.975, 103.054 100.280, 101.667 101.667 M 117 114.500 L 117 128 120.500 128 L 124 128 124 114.500 L 124 101 120.500 101 L 117 101 117 114.500 M 126.667 101.667 C 126.300 102.033, 126 108.108, 126 115.167 L 126 128 129.401 128 L 132.801 128 133.151 119.049 C 133.361 113.663, 133.998 109.600, 134.750 108.849 C 137.120 106.481, 138.228 109.566, 138.366 118.916 L 138.500 127.999 141.750 128 L 145 128 145.014 120.750 C 145.031 111.767, 145.731 109, 147.986 109 C 150.218 109, 151.031 113.567, 150.278 121.874 L 149.722 128 153.611 128.002 L 157.500 128.004 157 116.150 C 156.665 108.212, 156.047 103.752, 155.128 102.648 C 153.364 100.530, 149.173 100.533, 146.829 102.655 C 145.127 104.195, 144.873 104.195, 143.171 102.655 C 140.861 100.565, 136.620 100.523, 134.571 102.571 C 133.143 104, 133 104, 133 102.571 C 133 100.976, 128.063 100.271, 126.667 101.667 M 163.241 103.250 C 158.670 108.129, 157.772 115.699, 160.937 122.669 C 163.710 128.777, 168.422 130.738, 172.171 127.345 C 173.265 126.355, 174 126.154, 174 126.845 C 174 127.500, 175.527 128, 177.529 128 L 181.058 128 180.779 114.750 L 180.500 101.500 177.250 101.187 C 175.133 100.983, 174 101.314, 174 102.137 C 174 103.119, 173.733 103.133, 172.800 102.200 C 170.799 100.199, 165.559 100.775, 163.241 103.250 M 197 114.437 L 197 128 200.529 128 L 204.058 128 203.779 114.750 L 203.500 101.500 200.250 101.187 L 197 100.873 197 114.437 M 209.299 103.250 C 205.976 106.899, 205 109.562, 205 114.984 C 205 123.142, 209.189 129, 215.023 129 C 218.463 129, 220 127.272, 220 123.403 C 220 120.441, 219.764 120.216, 216.798 120.353 C 214.150 120.475, 213.425 120.025, 212.605 117.750 C 211.950 115.933, 211.950 114.067, 212.605 112.250 C 213.425 109.975, 214.150 109.525, 216.798 109.647 C 219.764 109.784, 220 109.559, 220 106.597 C 220 104.839, 219.460 102.860, 218.800 102.200 C 216.793 100.193, 211.556 100.772, 209.299 103.250 M 66.314 108.024 L 64.127 113 66.564 113 C 68.821 113, 69 112.632, 69 108 C 69 105.250, 68.888 103.011, 68.750 103.024 C 68.612 103.037, 67.516 105.287, 66.314 108.024 M 22.554 107.902 C 20.650 108.647, 20.652 108.676, 22.637 109.195 C 23.943 109.536, 24.667 109.240, 24.667 108.363 C 24.667 107.613, 24.629 107.032, 24.583 107.070 C 24.538 107.109, 23.624 107.483, 22.554 107.902 M 44.250 108.728 C 46.313 108.944, 49.688 108.944, 51.750 108.728 C 53.813 108.513, 52.125 108.336, 48 108.336 C 43.875 108.336, 42.188 108.513, 44.250 108.728 M 86.571 110.571 C 84.712 112.431, 84.501 117.101, 86.200 118.800 C 89.441 122.041, 93.764 118.179, 92.506 113.167 C 91.463 109.011, 89.145 107.997, 86.571 110.571 M 168.329 109.775 C 164.882 111.968, 166.194 120, 170 120 C 173.659 120, 175.338 113.481, 172.429 110.571 C 170.675 108.818, 170.031 108.693, 168.329 109.775 M 221 127 C 221 128.333, 221.667 129, 223 129 C 224.333 129, 225 128.333, 225 127 C 225 125.667, 224.333 125, 223 125 C 221.667 125, 221 125.667, 221 127 M 12.750 126.689 C 10.671 127.233, 10.398 129, 12.393 129 C 13.159 129, 14.045 128.325, 14.362 127.500 C 14.678 126.675, 14.839 126.052, 14.719 126.116 C 14.598 126.180, 13.713 126.438, 12.750 126.689 M 38.250 126.743 C 34.263 126.932, 31 127.518, 31 128.044 C 31 129.677, 43.946 129.197, 45.643 127.500 C 46.468 126.675, 46.773 126.089, 46.321 126.199 C 45.870 126.308, 42.237 126.553, 38.250 126.743" stroke="none" fill="#fc060c" fill-rule="evenodd"/></svg>